<svg id="Layer_1" xmlns="http://www.w3.org/2000/svg" xmlns:xlink="http://www.w3.org/1999/xlink" version="1.1" viewBox="0 0 261.58 102.9">
  
  <defs>
    <style>
      .st0 {
        fill: none;
      }

      .st1 {
        fill: #6cff93;
      }

      .st2 {
        clip-path: url(#clippath);
      }
    </style>
    <clipPath id="clippath">
      <rect class="st0" width="261.58" height="102.9"/>
    </clipPath>
  </defs>
  <g class="st2">
    <g>
      <path class="st1" d="M0,51.45C0,32.12,0,22.46,4.19,15.28c2.68-4.59,6.5-8.41,11.09-11.09C22.46,0,32.12,0,51.45,0h158.68c19.33,0,28.99,0,36.17,4.19,4.59,2.68,8.41,6.5,11.09,11.09,4.19,7.18,4.19,16.85,4.19,36.17s0,28.99-4.19,36.17c-2.68,4.59-6.5,8.41-11.09,11.09-7.18,4.19-16.85,4.19-36.17,4.19H51.45c-19.33,0-28.99,0-36.17-4.19-4.59-2.68-8.41-6.5-11.09-11.09C0,80.44,0,70.78,0,51.45Z"/>
      <path d="M213.18,34.05v15.79c0,3.67,1.45,5.68,4.64,5.68,3.89,0,5.82-2.42,5.82-7.89v-13.57h13.5v26.45c0,14.54-9.38,22.49-21.67,22.49-8.55,0-13.31-2.56-16.34-5.46v-12.85c2.7,3.88,7.11,6.54,13.77,6.54,6.03,0,11.79-3.05,11.79-10.6v-1.38c-2.01,5.33-6.45,7.42-11.65,7.42-7.13,0-13.43-5.26-13.43-14.47v-18.14h13.57ZM79,33.01c5.95,0,9.97,2.63,12.32,7.55v-6.51h13.57v40.16h-13.57v-7.55c-2.28,5.47-6.37,8.59-12.32,8.59-8.72,0-14.96-7.82-14.96-22.16,0-12.95,6.23-20.08,14.96-20.08ZM123.38,24.36v16.2c2.36-4.92,6.37-7.55,12.33-7.55,8.72,0,15.02,7.13,15.02,20.08,0,14.33-6.3,22.16-15.02,22.16-5.96,0-10.04-3.12-12.33-8.59v7.55h-13.57V24.36h13.57ZM168.32,24.36v16.2c2.35-4.92,6.37-7.55,12.32-7.55,8.72,0,14.96,7.06,14.96,20.08,0,14.4-6.23,22.16-14.96,22.16-5.96,0-10.04-3.12-12.32-8.59v7.55h-13.57V24.36h13.57ZM45.91,24.36v9.69h14.04v9.97h-14.04v4.15h14.04v9.97h-14.04c.07,3.46,1.94,4.99,5.75,4.99,2.38,0,4.89-.69,8.29-2.27v11.36c-2.79,1.5-6.72,2.83-11.5,2.82-8.75-.01-16.11-4.53-16.11-15.99v-.9h-9.39l-.62-9.97h10.01v-4.15h-10.15l-.62-9.97h10.78v-9.69h13.57ZM84.67,43.19c-4.15,0-6.58,3.32-6.58,9.21,0,5.89,2.42,9.21,6.58,9.21,4.29,0,6.58-3.32,6.58-9.21,0-5.89-2.28-9.21-6.58-9.21ZM174.96,43.19c-4.22,0-6.65,3.19-6.65,9.21s2.42,9.21,6.65,9.21c4.15,0,6.58-3.32,6.58-9.21,0-5.89-2.42-9.21-6.58-9.21ZM129.96,43.19c-4.22,0-6.58,3.39-6.58,9.21,0,5.4,2.36,8.52,6.58,8.52,4.22,0,6.58-3.05,6.58-8.52,0-6.02-2.35-9.21-6.58-9.21Z"/>
    </g>
  </g>
</svg>
